<?xml version="1.0" encoding="utf-8"?>
<!-- Generator: Adobe Illustrator 19.0.0, SVG Export Plug-In . SVG Version: 6.00 Build 0)  -->
<svg version="1.1" id="Layer_1" xmlns="http://www.w3.org/2000/svg" xmlns:xlink="http://www.w3.org/1999/xlink" x="0px" y="0px"
	 viewBox="0 0 320 90" style="enable-background:new 0 0 320 90;" xml:space="preserve">
<style type="text/css">
	.st0{fill:#92A03A;}
	.st1{fill:#444444;}
	.st2{fill:#4F4F4D;}
	.st3{fill:#434442;}
	.st4{fill:#D1DD31;}
</style>
<g id="XMLID_1_">
	<g id="XMLID_69_">
		<g id="XMLID_176_">
			<path id="XMLID_190_" class="st0" d="M97.5,24c0,1.5-0.5,2.7-1.4,3.7c-0.9,1-2.1,1.4-3.4,1.4h-7.8v18.8c0,0.8-0.2,1.5-0.5,2.1
				c-0.3,0.6-0.8,1.1-1.2,1.5c-0.5,0.4-1.1,0.7-1.7,0.9c-0.6,0.2-1.2,0.3-1.7,0.3V33.8c0-1.4,0.3-2.6,0.8-3.8
				c0.5-1.2,1.2-2.2,2.1-3.1c0.9-0.9,2-1.6,3.2-2.1c1.2-0.5,2.5-0.8,3.9-0.8H97.5z"/>
			<path id="XMLID_187_" class="st0" d="M99.6,19.1c0-1.3,0.5-2.5,1.5-3.4c1-0.9,2.2-1.4,3.7-1.4v4.8H99.6z M104.8,47.9
				c0,1.3-0.5,2.5-1.5,3.4c-1,0.9-2.2,1.4-3.7,1.4l0.1-23.9c0-1.3,0.5-2.5,1.5-3.4c1-0.9,2.2-1.4,3.7-1.4V47.9z"/>
			<path id="XMLID_184_" class="st0" d="M112.9,40.8v2.1c0,1.3,0.5,2.5,1.4,3.4c0.9,0.9,2.1,1.4,3.4,1.4h22c1.3,0,2.5,0.5,3.4,1.5
				c0.9,1,1.4,2.2,1.4,3.7h-26.8c-1.4,0-2.7-0.3-3.9-0.8c-1.2-0.5-2.3-1.2-3.2-2.1c-0.9-0.9-1.6-1.9-2.1-3.1
				c-0.5-1.2-0.8-2.5-0.8-3.8v-8.9c0-1.4,0.3-2.6,0.8-3.8c0.5-1.2,1.2-2.2,2.1-3.1c0.9-0.9,2-1.6,3.2-2.1c1.2-0.5,2.5-0.8,3.9-0.8
				h17.5c1.4,0,2.7,0.3,3.9,0.8c1.2,0.5,2.3,1.2,3.2,2.1c0.9,0.9,1.6,1.9,2.1,3.1c0.5,1.2,0.8,2.5,0.8,3.8v6.9H112.9z M112.9,35.7
				H140v-1.8c0-1.3-0.5-2.5-1.4-3.4c-0.9-0.9-2.1-1.4-3.4-1.4h-22.3V35.7z"/>
			<path id="XMLID_182_" class="st0" d="M181.5,47.9c0,0.8-0.2,1.5-0.5,2.1c-0.3,0.6-0.8,1.1-1.2,1.5c-0.5,0.4-1.1,0.7-1.7,0.9
				c-0.6,0.2-1.2,0.3-1.7,0.3V33.8c0-0.7-0.1-1.3-0.4-1.9c-0.2-0.6-0.6-1.1-1-1.5c-0.4-0.4-1-0.8-1.5-1c-0.6-0.2-1.2-0.4-1.9-0.4
				h-18.3v18.8c0,0.8-0.2,1.5-0.5,2.1c-0.3,0.6-0.8,1.1-1.2,1.5c-0.5,0.4-1,0.7-1.6,0.9c-0.6,0.2-1.2,0.3-1.8,0.3V33.8
				c0-1.4,0.3-2.6,0.8-3.8c0.5-1.2,1.2-2.2,2.1-3.1c0.9-0.9,2-1.6,3.2-2.1c1.2-0.5,2.5-0.8,3.9-0.8h13.4c1.4,0,2.7,0.3,3.9,0.8
				c1.2,0.5,2.3,1.2,3.2,2.1c0.9,0.9,1.6,1.9,2.2,3.1c0.5,1.2,0.8,2.5,0.8,3.8V47.9z"/>
			<path id="XMLID_180_" class="st0" d="M189.5,29v18.8c0,1.3-0.5,2.5-1.5,3.4c-1,0.9-2.2,1.4-3.7,1.4V21.1c0-1.3,0.5-2.5,1.5-3.4
				c1-0.9,2.2-1.4,3.7-1.4v8.9c0.7-0.4,1.5-0.7,2.3-0.9c0.8-0.2,1.7-0.3,2.6-0.3h3.7c0,1.5-0.5,2.7-1.4,3.7c-0.9,1-2.1,1.4-3.4,1.4
				H189.5z"/>
			<path id="XMLID_177_" class="st0" d="M228.5,24c1.4,0,2.7,0.3,3.9,0.8c1.2,0.5,2.3,1.2,3.2,2.1c0.9,0.9,1.6,1.9,2.2,3.1
				c0.5,1.2,0.8,2.5,0.8,3.8v8.9c0,1.4-0.3,2.7-0.8,3.9c-0.5,1.2-1.2,2.3-2.2,3.2c-0.9,0.9-2,1.6-3.2,2.1c-1.2,0.5-2.5,0.8-3.9,0.8
				H211c-1.4,0-2.7-0.3-3.9-0.8c-1.2-0.5-2.3-1.2-3.2-2.1c-0.9-0.9-1.6-1.9-2.1-3.2c-0.5-1.2-0.8-2.5-0.8-3.9v-7.1h32.2v-1.8
				c0-1.3-0.5-2.5-1.4-3.4c-0.9-0.9-2.1-1.4-3.4-1.4h-21.9c-1.3,0-2.5-0.5-3.4-1.4c-0.9-1-1.4-2.2-1.4-3.7H228.5z M233.3,40.8h-27.1
				v2c0,1.3,0.5,2.5,1.4,3.4c0.9,0.9,2.1,1.4,3.4,1.4h22.3V40.8z"/>
		</g>
	</g>
	<g id="XMLID_44_">
		<g id="XMLID_134_">
			<path id="XMLID_144_" class="st1" d="M174.2,56.4h1.5l4,9.2l4-9.2h1.5v11h-1v-9.7h0l-4.2,9.7h-0.5l-4.3-9.7h0v9.7h-1V56.4z"/>
			<path id="XMLID_142_" class="st1" d="M191.3,56.4h6.8v0.9h-5.7v3.9h5.4v0.9h-5.4v4.3h6v0.9h-7V56.4z"/>
			<path id="XMLID_139_" class="st1" d="M203.6,56.4h3.4c1,0,1.8,0.1,2.4,0.3c0.7,0.2,1.2,0.5,1.7,0.9c0.4,0.4,0.8,0.8,1,1.2
				c0.3,0.4,0.4,0.9,0.6,1.3c0.1,0.4,0.2,0.8,0.2,1.1c0,0.3,0,0.6,0,0.7c0,0.1,0,0.4,0,0.7c0,0.3-0.1,0.7-0.2,1.1
				c-0.1,0.4-0.3,0.8-0.6,1.3c-0.3,0.4-0.6,0.8-1,1.2c-0.4,0.4-1,0.7-1.7,0.9c-0.7,0.2-1.5,0.3-2.4,0.3h-3.4V56.4z M204.6,66.4h2.1
				c0.7,0,1.4-0.1,2-0.3c0.6-0.2,1.2-0.5,1.7-0.8c0.5-0.4,0.8-0.8,1.1-1.4c0.3-0.6,0.4-1.2,0.4-2c0-0.8-0.1-1.5-0.4-2
				c-0.3-0.6-0.6-1-1.1-1.4c-0.5-0.4-1-0.6-1.7-0.8c-0.6-0.2-1.3-0.3-2-0.3h-2.1V66.4z"/>
			<path id="XMLID_137_" class="st1" d="M218.4,56.4h1v11h-1V56.4z"/>
			<path id="XMLID_135_" class="st1" d="M225.6,56.4h1v4.8h0.1l5.4-4.8h1.4l-5.6,5l5.9,5.9h-1.5l-5.6-5.7h-0.1v5.7h-1V56.4z"/>
		</g>
	</g>
	<g id="XMLID_2_">
		<g id="XMLID_32_">
			<g id="XMLID_40_">
				<polygon id="XMLID_5_" class="st2" points="30.8,41.4 53,22.8 76.6,27.3 75.8,52.6 				"/>
			</g>
			<polygon id="XMLID_4_" class="st3" points="30.8,79.9 30.8,41.5 50,46.1 50,67.7 			"/>
		</g>
		<g id="XMLID_8_">
			<g id="XMLID_12_">
				<polygon id="XMLID_7_" class="st0" points="45.9,28.7 23.6,10.1 0,14.6 0.8,39.9 				"/>
			</g>
			<polygon id="XMLID_6_" class="st4" points="45.9,67.2 45.9,28.8 26.6,33.4 26.6,55 			"/>
		</g>
	</g>
</g>
</svg>
